# xmcd
#
# Track frame offsets:
#	150
#	17350
#	35705
#	53747
#	71066
#	89997
#	109929
#	123598
#	140214
#	158716
#	174893
#	194251
#	213856
#
# Disc length: 3125 seconds
#
# Revision: 1
# Processed by: cddbd v1.5PL3 Copyright (c) Steve Scherf et al.
# Submitted via: EasyCDDAExtractor 7.0.4.1
#
DISCID=bc0c330d
DTITLE=Lori McKenna - Bittertown
DYEAR=2004
DGENRE=
TTITLE0=Bible song
TTITLE1=Mr Sunshine
TTITLE2=Silver bus
TTITLE3=Pour
TTITLE4=Lone star
TTITLE5=Stealing kisses
TTITLE6=Monday afternoon
TTITLE7=The ledge
TTITLE8=My sweetheart
TTITLE9=Cowardly lion
TTITLE10=One man
TTITLE11=One kiss goodnight
TTITLE12=If you ask
EXTD=
EXTT0=
EXTT1=
EXTT2=
EXTT3=
EXTT4=
EXTT5=
EXTT6=
EXTT7=
EXTT8=
EXTT9=
EXTT10=
EXTT11=
EXTT12=
PLAYORDER=
